<?xml version="1.0" encoding="UTF-8" standalone="no"?>
<!-- Uploaded to: SVG Repo, www.svgrepo.com, Generator: SVG Repo Mixer Tools -->

<svg
   version="1.1"
   id="Layer_1"
   viewBox="0 0 508 508"
   xml:space="preserve"
   sodipodi:docname="email-mail-svgrepo-com (1).svg"
   inkscape:version="1.4 (e7c3feb1, 2024-10-09)"
   xmlns:inkscape="http://www.inkscape.org/namespaces/inkscape"
   xmlns:sodipodi="http://sodipodi.sourceforge.net/DTD/sodipodi-0.dtd"
   xmlns="http://www.w3.org/2000/svg"
   xmlns:svg="http://www.w3.org/2000/svg"><defs
   id="defs6" /><sodipodi:namedview
   id="namedview6"
   pagecolor="#ffffff"
   bordercolor="#000000"
   borderopacity="0.25"
   inkscape:showpageshadow="2"
   inkscape:pageopacity="0.0"
   inkscape:pagecheckerboard="0"
   inkscape:deskcolor="#d1d1d1"
   inkscape:zoom="0.93697427"
   inkscape:cx="383.68183"
   inkscape:cy="256.14364"
   inkscape:window-width="2272"
   inkscape:window-height="1027"
   inkscape:window-x="0"
   inkscape:window-y="25"
   inkscape:window-maximized="0"
   inkscape:current-layer="Layer_1" />
<circle
   style="fill:#bababa;fill-opacity:0"
   cx="254"
   cy="254"
   r="254"
   id="circle1" />
<path
   style="fill:#0d00ff;fill-opacity:1"
   d="M411.3,410.4H96.7c-3.3,0-6-2.7-6-6v-211h326.6v211.1C417.3,407.7,414.6,410.4,411.3,410.4z"
   id="path1" />
<path
   style="fill:#6302ff;fill-opacity:1"
   d="M 253.9156,264.32826 91.755806,407.81203 c 0.811446,0.91231 1.188818,1.40011 2.442017,2.15233 1.693328,1.01641 15.130367,0.45496 20.217777,0.45333 l 279.1,-0.0894 c 4.2021,-10e-4 12.24995,-0.06 17.64955,0.0606 2.57225,0.0575 4.20728,-1.11002 5.12307,-2.63403 z"
   id="path2"
   sodipodi:nodetypes="ccsssscc" />
<path
   style="fill:#bdb8ff;fill-opacity:1"
   d="M417.3,193.4L254,320.4l-163.3-127L243.4,74.6c6.2-4.8,15-4.8,21.2,0L417.3,193.4z"
   id="path3" />
<path
   style="fill:#FFFFFF;"
   d="M380.6,131.6v90.3L254,320.4l-126.6-98.5v-90.3c0-3.5,2.9-6.4,6.4-6.4h240.4  C377.7,125.2,380.6,128,380.6,131.6z"
   id="path4" />
<g
   id="g6">
	<rect
   x="166"
   y="152.3"
   style="fill:#8780ff;fill-opacity:1"
   width="168.5"
   height="10.6"
   id="rect4" />
	<rect
   x="166"
   y="179"
   style="fill:#8780ff;fill-opacity:1"
   width="168.5"
   height="10.6"
   id="rect5" />
	<rect
   x="166"
   y="205.7"
   style="fill:#8780ff;fill-opacity:1"
   width="112.2"
   height="10.6"
   id="rect6" />
</g>
</svg>
